<svg width="48" height="48" viewBox="0 0 48 48" fill="none" xmlns="http://www.w3.org/2000/svg">
<path d="M48 24C48 37.2548 37.2548 48 24 48C10.7452 48 0 37.2548 0 24C0 10.7452 10.7452 0 24 0C37.2548 0 48 10.7452 48 24Z" fill="#C3BBE4"/>
<path fill-rule="evenodd" clip-rule="evenodd" d="M27.8286 47.9475L9.05957 27.9737L31.0728 9.21875L47.9544 26.7033C46.8471 37.5583 38.5056 46.2726 27.8286 47.9475Z" fill="#5036B0" fill-opacity="0.45"/>
<circle cx="22.5" cy="21.5" r="15.5" fill="white"/>
<path d="M13 20.1053L15.0329 17.9737L19.8807 21.4474L30.2016 13L32 15.1316L19.8807 28L13 20.1053Z" fill="#C3BBE4" stroke="#C3BBE4"/>
<path d="M19.7207 28L18 25.9231L30.8268 14L32 15.3077L19.7207 28Z" fill="#5036B0" fill-opacity="0.45"/>
</svg>