<svg width="3" height="12" viewBox="0 0 3 12" fill="none" xmlns="http://www.w3.org/2000/svg">
<path d="M1.5 7.26343C1.20333 7.26343 0.913321 7.18933 0.666648 7.0505C0.419975 6.91167 0.227711 6.71435 0.11418 6.48349C0.000648499 6.25263 -0.0290549 5.9986 0.0288229 5.75352C0.0867007 5.50844 0.229556 5.28331 0.439335 5.10662C0.649113 4.92993 0.91639 4.8096 1.20736 4.76085C1.49833 4.7121 1.79993 4.73712 2.07402 4.83274C2.34811 4.92837 2.58238 5.09031 2.7472 5.29808C2.91203 5.50585 3 5.75012 3 6C3.00027 6.16598 2.96165 6.33037 2.88637 6.48376C2.81108 6.63715 2.7006 6.77652 2.56126 6.89388C2.42192 7.01125 2.25646 7.1043 2.07435 7.16772C1.89224 7.23113 1.69706 7.26365 1.5 7.26343ZM3 10.7366C3 10.4867 2.91203 10.2424 2.7472 10.0346C2.58238 9.82688 2.34811 9.66494 2.07402 9.56931C1.79993 9.47369 1.49833 9.44867 1.20736 9.49742C0.91639 9.54617 0.649113 9.6665 0.439335 9.84319C0.229556 10.0199 0.0867007 10.245 0.0288229 10.4901C-0.0290549 10.7352 0.000648499 10.9892 0.11418 11.2201C0.227711 11.4509 0.419975 11.6482 0.666648 11.7871C0.913321 11.9259 1.20333 12 1.5 12C1.69706 12.0002 1.89224 11.9677 2.07435 11.9043C2.25646 11.8409 2.42192 11.7478 2.56126 11.6305C2.7006 11.5131 2.81108 11.3737 2.88637 11.2203C2.96165 11.0669 3.00027 10.9025 3 10.7366ZM3 1.26343C3 1.01355 2.91203 0.769276 2.7472 0.561506C2.58238 0.353736 2.34811 0.191799 2.07402 0.0961736C1.79993 0.000547675 1.49833 -0.0244728 1.20736 0.0242769C0.91639 0.0730266 0.649113 0.193357 0.439335 0.37005C0.229556 0.546744 0.0867007 0.771865 0.0288229 1.01695C-0.0290549 1.26203 0.000648499 1.51606 0.11418 1.74692C0.227711 1.97778 0.419975 2.1751 0.666648 2.31393C0.913321 2.45276 1.20333 2.52686 1.5 2.52686C1.69706 2.52708 1.89224 2.49456 2.07435 2.43114C2.25646 2.36773 2.42192 2.27468 2.56126 2.15731C2.7006 2.03995 2.81108 1.90058 2.88637 1.74719C2.96165 1.5938 3.00027 1.42941 3 1.26343Z" fill="black"/>
<path d="M1.5 7.26343C1.20333 7.26343 0.913321 7.18933 0.666648 7.0505C0.419975 6.91167 0.227711 6.71435 0.11418 6.48349C0.000648499 6.25263 -0.0290549 5.9986 0.0288229 5.75352C0.0867007 5.50844 0.229556 5.28331 0.439335 5.10662C0.649113 4.92993 0.91639 4.8096 1.20736 4.76085C1.49833 4.7121 1.79993 4.73712 2.07402 4.83274C2.34811 4.92837 2.58238 5.09031 2.7472 5.29808C2.91203 5.50585 3 5.75012 3 6C3.00027 6.16598 2.96165 6.33037 2.88637 6.48376C2.81108 6.63715 2.7006 6.77652 2.56126 6.89388C2.42192 7.01125 2.25646 7.1043 2.07435 7.16772C1.89224 7.23113 1.69706 7.26365 1.5 7.26343ZM3 10.7366C3 10.4867 2.91203 10.2424 2.7472 10.0346C2.58238 9.82688 2.34811 9.66494 2.07402 9.56931C1.79993 9.47369 1.49833 9.44867 1.20736 9.49742C0.91639 9.54617 0.649113 9.6665 0.439335 9.84319C0.229556 10.0199 0.0867007 10.245 0.0288229 10.4901C-0.0290549 10.7352 0.000648499 10.9892 0.11418 11.2201C0.227711 11.4509 0.419975 11.6482 0.666648 11.7871C0.913321 11.9259 1.20333 12 1.5 12C1.69706 12.0002 1.89224 11.9677 2.07435 11.9043C2.25646 11.8409 2.42192 11.7478 2.56126 11.6305C2.7006 11.5131 2.81108 11.3737 2.88637 11.2203C2.96165 11.0669 3.00027 10.9025 3 10.7366ZM3 1.26343C3 1.01355 2.91203 0.769276 2.7472 0.561506C2.58238 0.353736 2.34811 0.191799 2.07402 0.0961736C1.79993 0.000547675 1.49833 -0.0244728 1.20736 0.0242769C0.91639 0.0730266 0.649113 0.193357 0.439335 0.37005C0.229556 0.546744 0.0867007 0.771865 0.0288229 1.01695C-0.0290549 1.26203 0.000648499 1.51606 0.11418 1.74692C0.227711 1.97778 0.419975 2.1751 0.666648 2.31393C0.913321 2.45276 1.20333 2.52686 1.5 2.52686C1.69706 2.52708 1.89224 2.49456 2.07435 2.43114C2.25646 2.36773 2.42192 2.27468 2.56126 2.15731C2.7006 2.03995 2.81108 1.90058 2.88637 1.74719C2.96165 1.5938 3.00027 1.42941 3 1.26343Z" fill="black"/>
<path d="M1.5 7.26343C1.20333 7.26343 0.913321 7.18933 0.666648 7.0505C0.419975 6.91167 0.227711 6.71435 0.11418 6.48349C0.000648499 6.25263 -0.0290549 5.9986 0.0288229 5.75352C0.0867007 5.50844 0.229556 5.28331 0.439335 5.10662C0.649113 4.92993 0.91639 4.8096 1.20736 4.76085C1.49833 4.7121 1.79993 4.73712 2.07402 4.83274C2.34811 4.92837 2.58238 5.09031 2.7472 5.29808C2.91203 5.50585 3 5.75012 3 6C3.00027 6.16598 2.96165 6.33037 2.88637 6.48376C2.81108 6.63715 2.7006 6.77652 2.56126 6.89388C2.42192 7.01125 2.25646 7.1043 2.07435 7.16772C1.89224 7.23113 1.69706 7.26365 1.5 7.26343ZM3 10.7366C3 10.4867 2.91203 10.2424 2.7472 10.0346C2.58238 9.82688 2.34811 9.66494 2.07402 9.56931C1.79993 9.47369 1.49833 9.44867 1.20736 9.49742C0.91639 9.54617 0.649113 9.6665 0.439335 9.84319C0.229556 10.0199 0.0867007 10.245 0.0288229 10.4901C-0.0290549 10.7352 0.000648499 10.9892 0.11418 11.2201C0.227711 11.4509 0.419975 11.6482 0.666648 11.7871C0.913321 11.9259 1.20333 12 1.5 12C1.69706 12.0002 1.89224 11.9677 2.07435 11.9043C2.25646 11.8409 2.42192 11.7478 2.56126 11.6305C2.7006 11.5131 2.81108 11.3737 2.88637 11.2203C2.96165 11.0669 3.00027 10.9025 3 10.7366ZM3 1.26343C3 1.01355 2.91203 0.769276 2.7472 0.561506C2.58238 0.353736 2.34811 0.191799 2.07402 0.0961736C1.79993 0.000547675 1.49833 -0.0244728 1.20736 0.0242769C0.91639 0.0730266 0.649113 0.193357 0.439335 0.37005C0.229556 0.546744 0.0867007 0.771865 0.0288229 1.01695C-0.0290549 1.26203 0.000648499 1.51606 0.11418 1.74692C0.227711 1.97778 0.419975 2.1751 0.666648 2.31393C0.913321 2.45276 1.20333 2.52686 1.5 2.52686C1.69706 2.52708 1.89224 2.49456 2.07435 2.43114C2.25646 2.36773 2.42192 2.27468 2.56126 2.15731C2.7006 2.03995 2.81108 1.90058 2.88637 1.74719C2.96165 1.5938 3.00027 1.42941 3 1.26343Z" fill="black"/>
</svg>
