<svg width="3" height="16" viewBox="0 0 3 16" fill="none" xmlns="http://www.w3.org/2000/svg">
<path d="M1.5 9.68457C1.20333 9.68457 0.913321 9.58577 0.666648 9.40067C0.419975 9.21557 0.227711 8.95247 0.11418 8.64466C0.000648499 8.33684 -0.0290549 7.99813 0.0288229 7.67136C0.0867007 7.34458 0.229556 7.04442 0.439335 6.80883C0.649113 6.57324 0.91639 6.4128 1.20736 6.3478C1.49833 6.2828 1.79993 6.31616 2.07402 6.44366C2.34811 6.57116 2.58238 6.78708 2.7472 7.0641C2.91203 7.34113 3 7.66682 3 8C3.00027 8.2213 2.96165 8.4405 2.88637 8.64501C2.81108 8.84953 2.7006 9.03535 2.56126 9.19184C2.42192 9.34833 2.25646 9.4724 2.07435 9.55695C1.89224 9.64151 1.69706 9.68487 1.5 9.68457ZM3 14.3154C3 13.9822 2.91203 13.6566 2.7472 13.3795C2.58238 13.1025 2.34811 12.8866 2.07402 12.7591C1.79993 12.6316 1.49833 12.5982 1.20736 12.6632C0.91639 12.7282 0.649113 12.8887 0.439335 13.1243C0.229556 13.3598 0.0867007 13.66 0.0288229 13.9868C-0.0290549 14.3136 0.000648499 14.6523 0.11418 14.9601C0.227711 15.2679 0.419975 15.531 0.666648 15.7161C0.913321 15.9012 1.20333 16 1.5 16C1.69706 16.0003 1.89224 15.9569 2.07435 15.8724C2.25646 15.7878 2.42192 15.6638 2.56126 15.5073C2.7006 15.3508 2.81108 15.165 2.88637 14.9604C2.96165 14.7559 3.00027 14.5367 3 14.3154ZM3 1.68457C3 1.3514 2.91203 1.0257 2.7472 0.748674C2.58238 0.471648 2.34811 0.255733 2.07402 0.128231C1.79993 0.000730233 1.49833 -0.0326303 1.20736 0.0323692C0.91639 0.0973687 0.649113 0.257809 0.439335 0.4934C0.229556 0.728992 0.0867007 1.02915 0.0288229 1.35593C-0.0290549 1.6827 0.000648499 2.02141 0.11418 2.32923C0.227711 2.63704 0.419975 2.90014 0.666648 3.08524C0.913321 3.27034 1.20333 3.36914 1.5 3.36914C1.69706 3.36944 1.89224 3.32608 2.07435 3.24153C2.25646 3.15697 2.42192 3.0329 2.56126 2.87642C2.7006 2.71993 2.81108 2.5341 2.88637 2.32959C2.96165 2.12507 3.00027 1.90588 3 1.68457Z" fill="#707070"/>
</svg>
